<?xml version="1.0" standalone="no"?>
<!DOCTYPE svg PUBLIC "-//W3C//DTD SVG 20010904//EN"
 "http://www.w3.org/TR/2001/REC-SVG-20010904/DTD/svg10.dtd">
<svg version="1.0" xmlns="http://www.w3.org/2000/svg"
 width="1234.000000pt" height="1234.000000pt" viewBox="0 0 1234.000000 1234.000000"
 preserveAspectRatio="xMidYMid meet">
<metadata>
Created by potrace 1.14, written by Peter Selinger 2001-2017
</metadata>
<g transform="translate(0.000000,1234.000000) scale(0.100000,-0.100000)"
fill="#000000" stroke="none">
<path d="M10086 12219 c-104 -60 -191 -109 -193 -109 -3 0 -17 -8 -31 -19 -15
-10 -48 -30 -73 -43 -77 -43 -94 -53 -99 -58 -3 -3 -18 -12 -35 -20 -16 -8
-32 -17 -35 -20 -6 -6 -86 -50 -117 -65 -13 -5 -23 -13 -23 -17 0 -5 -4 -8 -9
-8 -7 0 -82 -42 -189 -105 -9 -6 -53 -30 -97 -54 -44 -25 -82 -47 -85 -51 -3
-4 -12 -9 -20 -13 -8 -3 -37 -20 -65 -37 -27 -16 -56 -33 -64 -36 -14 -7 -162
-93 -216 -125 -16 -10 -47 -27 -67 -38 -69 -38 -83 -46 -88 -52 -3 -4 -27 -18
-55 -33 -27 -14 -71 -38 -97 -53 -26 -16 -98 -57 -160 -92 -62 -35 -115 -68
-116 -73 -2 -4 -7 -6 -12 -3 -4 3 -13 -2 -20 -10 -7 -8 -16 -15 -20 -15 -5 0
-54 -27 -110 -60 -56 -33 -103 -60 -105 -60 -3 0 -180 -104 -205 -120 -8 -6
-20 -13 -27 -16 -7 -3 -81 -46 -165 -94 -84 -49 -191 -110 -238 -136 -47 -26
-87 -50 -90 -53 -3 -3 -18 -13 -35 -21 -16 -8 -41 -22 -55 -31 -14 -9 -45 -27
-70 -41 -25 -14 -61 -35 -80 -47 -19 -11 -42 -24 -50 -28 -8 -4 -59 -33 -113
-65 -53 -32 -102 -58 -107 -58 -6 0 -10 -4 -10 -10 0 -5 -9 -10 -19 -10 -11 0
-21 -4 -23 -9 -1 -4 -34 -25 -73 -46 -38 -21 -72 -41 -75 -44 -3 -3 -30 -19
-60 -35 -30 -16 -63 -36 -72 -44 -10 -8 -18 -11 -18 -6 0 5 -4 5 -8 -1 -8 -11
-27 -23 -112 -69 -30 -16 -57 -32 -60 -35 -3 -3 -23 -15 -45 -26 -22 -11 -42
-22 -45 -25 -4 -5 -77 -47 -220 -128 -25 -13 -57 -34 -72 -44 -16 -11 -28 -16
-28 -11 0 4 -4 4 -8 -2 -4 -5 -18 -16 -31 -23 -44 -25 -86 -49 -174 -101 -49
-28 -93 -51 -98 -51 -5 0 -9 -4 -9 -9 0 -5 -8 -11 -17 -13 -17 -3 -18 -102
-19 -1893 -1 -1040 -2 -1895 -3 -1901 -1 -7 -43 -35 -93 -64 -51 -29 -108 -61
-125 -72 -68 -38 -100 -56 -148 -85 -27 -16 -57 -32 -65 -36 -8 -5 -24 -13
-35 -20 -11 -7 -51 -30 -89 -52 -37 -22 -94 -55 -125 -73 -31 -18 -68 -38 -84
-45 -15 -6 -27 -14 -27 -18 0 -4 -15 -12 -32 -20 -18 -7 -35 -16 -38 -19 -3
-4 -36 -24 -75 -46 -38 -21 -78 -43 -87 -49 -121 -71 -182 -105 -189 -105 -5
0 -9 -4 -9 -10 0 -5 -4 -10 -10 -10 -5 0 -47 -22 -94 -50 -47 -27 -88 -50 -92
-50 -4 0 -15 -6 -23 -14 -9 -8 -43 -28 -76 -46 -33 -18 -62 -35 -65 -39 -3 -3
-17 -12 -32 -18 l-28 -13 0 939 c0 516 -3 940 -6 944 -3 3 -29 -8 -57 -25 -29
-17 -72 -42 -97 -56 -25 -14 -74 -42 -109 -64 -34 -21 -67 -38 -72 -38 -5 0
-9 -4 -9 -10 0 -5 -5 -10 -12 -10 -6 0 -57 -26 -112 -59 -213 -124 -343 -200
-381 -221 -95 -54 -161 -92 -175 -100 -50 -31 -151 -90 -154 -90 -2 0 -81 -46
-177 -101 -96 -56 -194 -113 -219 -127 -25 -13 -49 -28 -54 -33 -9 -8 -17
-5663 -8 -5682 4 -8 57 19 80 41 7 6 17 12 22 12 8 0 66 33 155 87 11 7 29 17
40 22 11 6 45 25 76 43 30 18 120 70 200 116 79 46 151 87 159 92 79 49 365
210 371 210 5 0 9 5 9 10 0 6 4 10 8 10 8 0 87 42 161 87 20 12 56 33 81 47
25 14 59 33 76 43 17 10 70 40 117 67 l87 50 0 948 0 948 40 25 c23 14 51 30
63 36 12 5 43 22 69 38 25 16 68 41 95 56 26 15 73 42 104 61 31 19 62 34 68
34 6 0 11 4 11 9 0 5 8 11 18 15 18 6 43 20 130 74 29 17 54 32 56 32 3 0 39
20 80 45 42 25 81 45 85 45 5 0 11 4 13 8 2 5 39 28 83 53 44 24 88 48 97 54
20 12 106 62 173 100 28 16 83 48 123 72 41 24 76 43 78 43 3 0 30 16 60 35
30 19 56 35 59 35 3 0 34 18 69 39 41 25 66 35 68 28 2 -7 3 -859 3 -1894 -1
-1036 0 -1883 1 -1883 7 0 272 155 288 169 10 9 20 15 22 13 3 -2 48 23 102
55 53 31 99 58 102 58 3 0 50 27 105 60 55 33 109 65 120 71 77 42 451 259
455 263 3 3 31 19 63 36 31 16 57 33 57 37 0 4 7 8 16 8 9 0 28 8 42 19 15 10
47 29 72 43 25 14 86 49 135 78 50 29 108 62 131 75 79 44 89 50 94 55 3 3 21
14 40 24 109 59 196 111 202 120 4 6 8 7 8 3 0 -5 12 0 28 11 15 10 70 43 122
73 52 29 109 62 125 71 17 10 41 24 55 30 14 7 27 15 30 18 3 3 79 48 170 99
91 52 173 101 183 109 9 8 17 12 17 8 0 -4 13 2 29 13 16 12 34 21 39 21 6 0
12 4 14 8 2 5 28 22 58 39 60 33 513 294 705 406 136 79 156 91 240 137 33 18
71 41 85 50 14 9 50 30 80 47 30 17 105 59 166 95 61 35 117 68 125 71 8 4 37
21 64 37 28 17 61 36 75 43 14 6 27 14 30 18 3 3 30 19 60 36 30 16 73 41 95
55 22 13 47 27 55 31 8 4 33 18 55 31 22 14 63 37 90 51 28 15 56 33 64 40 12
12 14 288 15 1900 1 1038 -1 1888 -3 1890 -5 6 -71 -28 -71 -37 0 -4 -5 -8
-10 -8 -6 0 -118 -62 -248 -137 -130 -75 -259 -150 -287 -165 -27 -16 -66 -38
-85 -49 -19 -12 -69 -41 -111 -65 -42 -24 -81 -44 -87 -44 -5 0 -12 -4 -14 -8
-4 -10 -266 -162 -279 -162 -5 0 -9 -4 -9 -10 0 -5 -6 -10 -13 -10 -7 0 -36
-16 -64 -35 -29 -19 -55 -35 -57 -35 -3 0 -72 -38 -153 -85 -140 -81 -174
-107 -154 -119 4 -3 5 -24 1 -46 -4 -21 -3 -37 1 -34 5 3 5 -5 0 -18 -5 -15
-5 -31 0 -41 6 -9 6 -17 1 -17 -8 0 -7 -69 2 -77 3 -3 1 -15 -4 -27 -4 -13 -4
-29 1 -39 6 -9 6 -17 2 -17 -4 0 -8 -40 -8 -90 0 -49 3 -90 7 -90 4 0 5 -6 3
-12 -9 -23 -11 -108 -3 -108 4 0 3 -11 -2 -25 -6 -15 -6 -26 0 -30 6 -4 7 -13
1 -23 -6 -11 -6 -24 0 -34 6 -10 6 -19 0 -23 -7 -4 -7 -15 -1 -30 5 -14 6 -25
2 -25 -4 0 -7 -11 -7 -25 0 -14 3 -25 7 -25 4 0 3 -11 -2 -25 -6 -15 -6 -26 0
-30 6 -4 7 -13 1 -24 -5 -9 -6 -23 -1 -31 4 -7 6 -19 3 -26 -8 -21 -9 -144 -1
-144 4 0 5 -6 3 -13 -9 -22 -11 -107 -3 -107 4 0 3 -11 -2 -25 -6 -15 -6 -26
0 -30 6 -4 7 -13 1 -23 -6 -11 -6 -24 0 -34 6 -10 6 -19 0 -23 -7 -4 -7 -15
-1 -30 5 -14 6 -25 2 -25 -4 0 -7 -11 -7 -25 0 -14 3 -25 7 -25 4 0 3 -11 -2
-25 -6 -15 -6 -26 0 -30 6 -4 7 -13 1 -24 -5 -9 -6 -23 -2 -30 5 -7 5 -28 1
-47 -5 -19 -4 -32 1 -28 5 3 5 -5 0 -18 -5 -15 -5 -31 0 -41 6 -9 6 -17 2 -17
-4 0 -8 -11 -8 -25 0 -14 4 -25 8 -25 5 0 5 -5 1 -11 -4 -7 -7 -21 -8 -32 -1
-15 -48 -48 -196 -134 -107 -62 -202 -116 -210 -120 -8 -4 -46 -25 -85 -48
-124 -73 -170 -99 -174 -96 -2 1 -7 -2 -10 -7 -3 -5 -33 -24 -66 -43 -50 -28
-225 -129 -388 -222 -18 -11 -50 -29 -72 -40 -22 -12 -46 -28 -53 -34 -7 -7
-20 -13 -28 -13 -8 0 -14 -3 -14 -7 0 -5 -23 -19 -50 -32 -28 -14 -50 -29 -50
-33 0 -4 -3 -7 -7 -6 -5 2 -35 -13 -68 -33 -115 -69 -160 -93 -165 -88 -9 8
-6 3744 3 3757 5 6 6 12 1 12 -11 0 -11 1250 -1 1268 5 6 5 12 0 12 -8 0 -11
626 -3 633 7 5 303 174 332 190 13 6 38 22 56 35 17 13 32 21 32 18 0 -3 32
15 72 40 40 24 78 44 85 44 7 0 13 4 13 8 0 5 15 16 33 25 17 9 50 27 72 40
55 33 584 337 615 354 14 8 39 23 55 33 17 10 53 31 80 46 28 14 62 35 77 45
14 11 30 19 35 19 4 0 19 9 33 20 35 27 49 25 48 -9 -1 -15 2 -33 6 -39 3 -6
2 -13 -3 -17 -7 -4 -7 -15 -1 -30 5 -14 6 -25 2 -25 -4 0 -7 -11 -7 -25 0 -14
3 -25 7 -25 4 0 3 -11 -2 -25 -6 -15 -6 -26 0 -30 6 -4 7 -13 1 -24 -5 -9 -6
-23 -2 -30 5 -7 5 -28 1 -47 -5 -19 -4 -32 1 -28 5 3 5 -5 0 -18 -5 -15 -5
-31 0 -41 6 -9 6 -17 1 -17 -8 0 -7 -69 2 -77 3 -3 1 -15 -4 -27 -4 -13 -4
-29 1 -39 6 -9 6 -17 2 -17 -10 0 -8 -103 1 -119 4 -6 4 -11 -1 -11 -4 0 -8
-25 -8 -55 0 -30 3 -55 7 -55 4 0 3 -11 -2 -25 -6 -15 -6 -26 0 -30 6 -4 7
-13 1 -23 -6 -11 -6 -24 0 -35 6 -9 6 -17 2 -17 -4 0 -8 -25 -8 -55 0 -30 3
-55 7 -55 4 0 3 -11 -2 -25 -6 -15 -6 -26 0 -30 6 -4 7 -13 1 -24 -6 -10 -6
-23 -1 -31 5 -8 5 -21 0 -30 -5 -9 -5 -22 -1 -29 5 -7 5 -28 1 -47 -5 -19 -4
-32 1 -28 5 3 5 -5 0 -18 -5 -15 -5 -31 0 -41 6 -9 6 -17 1 -17 -8 0 -7 -69 2
-77 3 -3 1 -15 -4 -27 -4 -13 -4 -29 1 -39 6 -9 6 -17 2 -17 -4 0 -8 -40 -8
-90 0 -49 3 -90 7 -90 4 0 3 -13 -2 -30 -5 -19 -5 -30 1 -30 6 0 6 -6 0 -18
-13 -24 4 -53 27 -45 9 3 24 11 32 18 8 7 35 23 60 36 25 13 47 26 50 29 5 5
28 19 105 61 28 15 124 70 214 123 90 53 165 96 168 96 3 0 17 8 31 18 15 11
52 33 82 49 30 17 90 51 133 77 43 25 80 46 82 46 3 0 29 16 59 35 30 19 59
35 65 35 5 0 11 3 13 8 2 4 29 21 60 37 32 17 58 33 58 37 0 5 3 7 8 6 4 -2
50 23 102 53 52 31 115 68 140 81 119 67 140 80 147 91 8 12 11 3777 3 3782
-3 2 -91 -46 -194 -106z"/>
</g>
</svg>
