<svg id="_0" data-name=" 0" xmlns="http://www.w3.org/2000/svg" viewBox="0 0 1296.71 1608.46"><defs><style>.h-color{fill:#ccc;stroke:#ccc;}.c-color{fill:#333;stroke:#333;}.accent-color{fill:#0;stroke:#0;} polygon{stroke-linecap:round;stroke-linejoin:round;stroke-width:0.71px;}</style></defs><g id="LINE-4"><polygon class="h-color" points="1296.36 108.72 1277.22 698.03 1089.57 761.25 1103.55 152.87 1296.36 108.72"/></g><g id="LINE-10"><polygon class="c-color" points="1103.55 152.87 1089.57 761.25 856.75 702.38 859.97 411.44 830.7 405.23 637.99 364.26 638 647.08 433.08 595.26 431.2 415.19 430.2 414.95 426.25 36.98 1103.55 152.87"/></g><g id="LINE-17"><polygon class="c-color" points="228.74 1345.89 27.66 1270.64 0.35 418.94 209.81 469.69 228.74 1345.89"/></g><g id="LINE-23"><polygon class="h-color" points="1268.08 980 1250.54 1520.37 1070.1 1608.11 1082.88 1051.91 1268.08 980"/></g><g id="LINE-28"><polygon class="accent-color" points="1296.36 108.72 1103.55 152.87 426.25 36.98 623.46 0.35 1296.36 108.72"/></g><g id="LINE-31"><polygon class="accent-color" points="852.04 1127.09 850.58 1259.53 638.03 1189.37 823.86 1118.3 852.04 1127.09"/></g><g id="LINE-32"><polygon class="accent-color" points="1268.08 980 1082.88 1051.91 853.62 984.97 1040.64 917.34 1268.08 980"/></g><g id="LINE-34"><polygon class="c-color" points="1082.88 1051.91 1070.1 1608.11 440.29 1376.86 439.12 1265.43 440.07 1265.08 437.2 989.95 638.01 922 638.03 1189.37 850.58 1259.53 852.04 1127.09 853.62 984.97 1082.88 1051.91"/></g><g id="LINE-38"><polygon class="accent-color" points="638 647.08 434.25 706.76 433.08 595.26 638 647.08"/><polygon class="h-color" points="830.7 405.23 823.86 1118.3 638.03 1189.37 638.01 922 437.2 989.95 440.07 1265.08 439.12 1265.43 228.74 1345.89 209.81 469.69 431.2 415.19 433.08 595.26 434.25 706.76 638 647.08 637.99 364.26 830.7 405.23"/></g><g id="LINE-40"><polygon class="accent-color" points="431.2 415.19 209.81 469.69 0.35 418.94 221.88 367.77 430.2 414.95 431.2 415.19"/></g></svg>