<svg id="_0" data-name="0" xmlns="http://www.w3.org/2000/svg" viewBox="0 0 492.38 758.06"><defs><style>.accent-color{fill:#dbdada;}.c-color{fill:#666;}.h-color{fill:#000}</style></defs><g id="LINE"><polygon class="accent-color" points="492.38 142.13 246.19 284.27 164.13 236.89 328.25 142.13 410.32 94.75 492.38 142.13"/></g><g id="LINE-2" data-name="LINE"><polygon class="accent-color" points="328.25 47.38 82.07 189.51 0 142.13 246.19 0 328.25 47.38"/></g><g id="LINE-3" data-name="LINE"><polygon class="c-color" points="164.13 521.17 164.13 615.92 82.07 663.3 82.07 473.79 164.13 521.17"/></g><g id="LINE-4" data-name="LINE"><polygon class="accent-color" points="492.38 426.41 410.32 473.79 328.25 426.41 328.25 331.65 410.32 379.03 492.38 426.41"/></g><g id="LINE-5" data-name="LINE"><polygon class="c-color" points="328.25 47.38 328.25 142.13 164.13 236.89 164.13 331.65 82.07 379.03 82.07 189.51 328.25 47.38"/></g><polygon class="h-color" points="410.32 473.79 410.32 568.54 328.25 521.17 328.25 426.41 410.32 473.79"/><polygon class="accent-color" points="164.13 331.65 164.13 426.41 82.07 379.03 164.13 331.65"/><polygon class="h-color" points="410.32 284.27 410.32 379.03 328.25 331.65 410.32 284.27"/><polygon class="accent-color" points="410.32 568.54 328.25 615.92 328.25 521.17 410.32 568.54"/><polygon class="c-color" points="410.32 379.03 410.32 284.27 328.25 331.65 328.25 615.92 410.32 568.54 410.32 473.79 492.38 426.41 492.38 615.92 246.19 758.06 246.19 284.27 492.38 142.13 492.38 331.65 410.32 379.03"/><g id="LINE-6" data-name="LINE"><polygon class="h-color" points="246.19 284.27 246.19 758.06 164.13 710.68 164.13 521.17 82.07 473.79 82.07 663.3 0 615.92 0 142.13 82.07 189.51 82.07 379.03 164.13 426.41 164.13 236.89 246.19 284.27"/></g></svg>